<svg width="32" height="32" viewBox="0 0 32 32" fill="none" xmlns="http://www.w3.org/2000/svg">
<rect width="32" height="32" rx="6" fill="black"/>
<path d="M24.3406 10.4844C25.4194 12.115 25.9966 14.0262 26.0006 15.9814C26.0047 17.9366 25.4354 19.8501 24.3633 21.4852C23.2913 23.1203 21.7634 24.4052 19.9687 25.1811C18.174 25.9569 16.1912 26.1896 14.2656 25.8504" stroke="#BBFEFF" stroke-width="2" stroke-linecap="round" stroke-linejoin="round"/>
<path d="M7.65931 21.5166C6.5805 19.8855 6.00361 17.9739 6.00002 16.0184C5.99643 14.0628 6.5663 12.1491 7.63912 10.5141C8.71193 8.87903 10.2406 7.59444 12.036 6.81924C13.8313 6.04405 15.8146 5.81227 17.7403 6.1526" stroke="#BBFEFF" stroke-width="2" stroke-linecap="round" stroke-linejoin="round"/>
<path d="M16 14C17.1046 14 18 14.8954 18 16C18 17.1046 17.1046 18 16 18C14.8954 18 14 17.1046 14 16C14 14.8954 14.8954 14 16 14Z" stroke="#BBFEFF" stroke-width="4" stroke-linecap="round" stroke-linejoin="round"/>
<path d="M23 7.5C23.8284 7.5 24.5 8.17157 24.5 9C24.5 9.82843 23.8284 10.5 23 10.5C22.1716 10.5 21.5 9.82843 21.5 9C21.5 8.17157 22.1716 7.5 23 7.5Z" stroke="#BBFEFF" stroke-width="3" stroke-linecap="round" stroke-linejoin="round"/>
<path d="M9 21.5C9.82843 21.5 10.5 22.1716 10.5 23C10.5 23.8284 9.82843 24.5 9 24.5C8.17157 24.5 7.5 23.8284 7.5 23C7.5 22.1716 8.17157 21.5 9 21.5Z" stroke="#BBFEFF" stroke-width="3" stroke-linecap="round" stroke-linejoin="round"/>
</svg>
