<svg width="106" height="42" viewBox="0 0 106 42" fill="none" xmlns="http://www.w3.org/2000/svg">
<g clip-path="url(#clip0_11864_65)">
<path d="M10.0427 38.5244C8.65207 38.5244 7.37311 38.1041 6.20583 37.2636C5.03854 36.423 4.36161 34.9365 4.17504 32.8041L2.00364 7.9848C1.95053 7.37775 2.47866 7.07422 3.58804 7.07422H3.77554C4.86929 7.07422 5.44272 7.37775 5.49583 7.9848L7.63863 32.4772C7.73804 33.6135 8.01062 34.4073 8.45636 34.8587C8.90211 35.3101 9.46873 35.5358 10.1562 35.5358C10.6719 35.5358 11.0754 35.5047 11.3668 35.4424C11.6582 35.3802 11.8508 35.349 11.9446 35.349C12.1946 35.349 12.4195 35.5981 12.6193 36.0962C12.8348 36.5943 12.9554 36.9912 12.9813 37.2869C13.0535 38.1119 12.0739 38.5244 10.0427 38.5244Z" fill="#BBFEFF"/>
<path d="M23.5896 38.5244C21.4646 38.5244 19.7488 37.9329 18.4421 36.7499C17.1342 35.5514 16.3882 33.9014 16.2044 31.8001L14.9461 17.4175C14.893 16.8105 15.4289 16.5069 16.5539 16.5069H16.718C17.8274 16.5069 18.4086 16.8105 18.4617 17.4175L19.6914 31.4732C19.8031 32.7496 20.2574 33.7458 21.0545 34.4618C21.8657 35.1622 22.9432 35.5125 24.287 35.5125C25.2245 35.5125 26.1395 35.2556 27.0321 34.742C27.9233 34.2127 28.6731 33.4967 29.2817 32.5939L27.9539 17.4175C27.9008 16.8105 28.4289 16.5069 29.5383 16.5069H29.7024C30.8274 16.5069 31.4164 16.8105 31.4695 17.4175L32.7585 32.1503C32.9164 33.9559 33.109 35.2634 33.336 36.0728C33.5617 36.8667 33.678 37.3025 33.6848 37.3803C33.7147 37.7228 33.4787 37.9718 32.9767 38.1275C32.4734 38.2676 31.9951 38.3376 31.542 38.3376C31.1514 38.3376 30.8432 38.1197 30.6176 37.6839C30.3906 37.2325 30.2098 36.7733 30.0752 36.3063C29.9562 35.8393 29.8757 35.5436 29.8335 35.4191C29.0443 36.3997 28.0954 37.1624 26.9868 37.7072C25.8939 38.252 24.7614 38.5244 23.5896 38.5244Z" fill="#BBFEFF"/>
<path d="M42.1378 38.361C41.544 38.361 41.1082 38.2909 40.8303 38.1508C40.5511 37.9952 40.3978 37.7617 40.3706 37.4504L39.096 22.881C38.938 21.0754 38.7383 19.7757 38.497 18.9819C38.2543 18.1725 38.1296 17.7288 38.1228 17.651C38.0928 17.3086 38.3295 17.0673 38.8329 16.9272C39.3505 16.7716 39.8437 16.6937 40.3124 16.6937C40.7031 16.6937 41.0105 16.9039 41.2348 17.3241C41.4591 17.7444 41.6293 18.1725 41.7456 18.6083C41.8775 19.0441 41.9645 19.3243 42.0066 19.4488C42.7958 18.4682 43.7369 17.7055 44.8299 17.1607C45.9385 16.6159 47.0787 16.3435 48.2506 16.3435C50.3756 16.3435 52.0842 16.9428 53.3766 18.1413C54.6832 19.3243 55.4278 20.9587 55.6103 23.0445L56.8706 37.4504C56.8978 37.7617 56.7855 37.9952 56.5335 38.1508C56.2801 38.2909 55.8643 38.361 55.2862 38.361H55.0987C54.5362 38.361 54.116 38.2909 53.8381 38.1508C53.5589 37.9952 53.4057 37.7617 53.3784 37.4504L52.1487 23.3947C52.037 22.1183 51.5756 21.1299 50.7643 20.4295C49.9673 19.7134 48.8969 19.3554 47.5531 19.3554C46.6156 19.3554 45.6935 19.62 44.7866 20.1493C43.8941 20.6629 43.1435 21.3712 42.535 22.274L43.8628 37.4504C43.89 37.7617 43.7776 37.9952 43.5256 38.1508C43.2723 38.2909 42.8643 38.361 42.3018 38.361H42.1378Z" fill="#BBFEFF"/>
<path d="M65.5284 38.361C64.419 38.361 63.8378 38.0574 63.7847 37.4504L62.032 17.4175C61.9789 16.8105 62.507 16.5069 63.6164 16.5069H63.7805C64.9055 16.5069 65.4945 16.8105 65.5476 17.4175L67.3003 37.4504C67.3534 38.0574 66.8175 38.361 65.6925 38.361H65.5284Z" fill="#BBFEFF"/>
<path d="M94.8677 16.3435C96.6021 16.3435 98.1685 16.8338 99.5667 17.8144C100.965 18.7951 101.774 20.5384 101.993 23.0445L103.253 37.4504C103.281 37.7617 103.168 37.9952 102.916 38.1508C102.663 38.2909 102.247 38.361 101.669 38.361H101.528C100.935 38.361 100.499 38.2909 100.221 38.1508C99.9417 37.9952 99.7885 37.7617 99.7612 37.4504L98.5315 23.3947C98.4212 22.1339 97.991 21.1455 97.2408 20.4295C96.5063 19.7134 95.4828 19.3554 94.1703 19.3554C93.0766 19.3554 92.1123 19.6745 91.2775 20.3127C90.457 20.9353 89.8032 21.5891 89.3163 22.274C89.3802 22.6475 89.4203 22.9277 89.4367 23.1145L90.6909 37.4504C90.744 38.0574 90.2081 38.361 89.0831 38.361H88.919C87.8096 38.361 87.2284 38.0574 87.1753 37.4504L85.9456 23.3947C85.8353 22.1339 85.4051 21.1455 84.6549 20.4295C83.9204 19.7134 82.8969 19.3554 81.5844 19.3554C80.6781 19.3554 79.8691 19.5733 79.1572 20.0092C78.444 20.4295 77.8591 20.8886 77.4027 21.3867C76.9619 21.8848 76.7442 22.165 76.7497 22.2273L78.0815 37.4504C78.1088 37.7617 77.9964 37.9952 77.7444 38.1508C77.5066 38.2909 77.0987 38.361 76.5206 38.361H76.3331C75.755 38.361 75.327 38.2909 75.0491 38.1508C74.7855 37.9952 74.64 37.7617 74.6128 37.4504L73.3381 22.881C73.1802 21.0754 72.9805 19.7757 72.7392 18.9819C72.4965 18.1725 72.3718 17.7288 72.3649 17.651C72.335 17.3086 72.5717 17.0673 73.0751 16.9272C73.5927 16.7716 74.0781 16.6937 74.5312 16.6937C74.9218 16.6937 75.2293 16.9039 75.4535 17.3241C75.6778 17.7444 75.8481 18.1725 75.9643 18.6083C76.0962 19.0441 76.1832 19.3243 76.2254 19.4488C76.9134 18.5616 77.7862 17.8222 78.8438 17.2307C79.9014 16.6392 81.0474 16.3435 82.2818 16.3435C83.5474 16.3435 84.7496 16.6003 85.8883 17.114C87.0256 17.6121 87.9079 18.4993 88.5352 19.7757C89.3061 18.7639 90.2417 17.939 91.3421 17.3008C92.4425 16.6626 93.6177 16.3435 94.8677 16.3435Z" fill="#BBFEFF"/>
<g filter="url(#filter0_d_11864_65)">
<circle cx="62.9414" cy="9.5" r="2.5" fill="#BBFEFF"/>
</g>
</g>
<defs>
<filter id="filter0_d_11864_65" x="52.4414" y="-1" width="21" height="21" filterUnits="userSpaceOnUse" color-interpolation-filters="sRGB">
<feFlood flood-opacity="0" result="BackgroundImageFix"/>
<feColorMatrix in="SourceAlpha" type="matrix" values="0 0 0 0 0 0 0 0 0 0 0 0 0 0 0 0 0 0 127 0" result="hardAlpha"/>
<feMorphology radius="2" operator="dilate" in="SourceAlpha" result="effect1_dropShadow_11864_65"/>
<feOffset/>
<feGaussianBlur stdDeviation="3"/>
<feComposite in2="hardAlpha" operator="out"/>
<feColorMatrix type="matrix" values="0 0 0 0 0.733333 0 0 0 0 0.996078 0 0 0 0 1 0 0 0 1 0"/>
<feBlend mode="normal" in2="BackgroundImageFix" result="effect1_dropShadow_11864_65"/>
<feBlend mode="normal" in="SourceGraphic" in2="effect1_dropShadow_11864_65" result="shape"/>
</filter>
<clipPath id="clip0_11864_65">
<rect width="106" height="42" fill="white"/>
</clipPath>
</defs>
</svg>
